<svg viewBox="0 0 64 64"><path d="M20,54h4v5h2V54h4a1,1,0,0,0,1-1V25a1,1,0,0,0-1-1H26V19H24v5H20a1,1,0,0,0-1,1V53A1,1,0,0,0,20,54Z"></path><path d="M48,52h4v5h2V52h4a1,1,0,0,0,1-1V23a1,1,0,0,0-1-1H54V17H52v5H48a1,1,0,0,0-1,1V51A1,1,0,0,0,48,52Z"></path><path d="M6,47h4v5h2V47h4a1,1,0,0,0,1-1V18a1,1,0,0,0-1-1H12V12H10v5H6a1,1,0,0,0-1,1V46A1,1,0,0,0,6,47ZM7,19h8V45H7Z"></path><path d="M34,41h4v5h2V41h4a1,1,0,0,0,1-1V12a1,1,0,0,0-1-1H40V6H38v5H34a1,1,0,0,0-1,1V40A1,1,0,0,0,34,41Zm1-28h8V39H35Z"></path></svg>
